<?xml version="1.0" encoding="utf-8"?>
<!-- Generator: Adobe Illustrator 23.0.1, SVG Export Plug-In . SVG Version: 6.00 Build 0)  -->
<svg version="1.1" id="Layer_1" xmlns="http://www.w3.org/2000/svg" xmlns:xlink="http://www.w3.org/1999/xlink" x="0px" y="0px"
	 viewBox="0 0 128 128" style="enable-background:new 0 0 128 128;" xml:space="preserve">
<style type="text/css">
	.st0{enable-background:new    ;}
</style>
<g class="st0">
	<path d="M37.6,31.3h-1.7c-0.2-1.5-0.5-2.7-1-3.4c-0.5-0.7-1.1-1.2-1.7-1.4c-0.6-0.2-1.3-0.3-2.1-0.3H28v18.1c0,0.7,0.1,1.3,0.2,1.7
		c0.1,0.4,0.5,0.7,1,0.9c0.5,0.2,1.3,0.3,2.4,0.3V49H19.1v-1.7c1.5,0,2.5-0.2,2.9-0.7c0.4-0.4,0.7-1.2,0.7-2.3V26.3h-2.6
		c-1,0-1.9,0.1-2.6,0.2c-0.7,0.2-1.3,0.6-1.8,1.4c-0.5,0.7-0.8,1.9-0.9,3.4h-1.7v-7h24.4V31.3z"/>
	<path d="M59.7,49h-9.4v-1.7c0.8,0,1.4-0.1,1.7-0.4c0.3-0.3,0.5-0.7,0.5-1.3v-6.1c0-0.6,0-1.2-0.1-1.6c-0.1-0.5-0.3-0.9-0.6-1.3
		c-0.3-0.4-0.9-0.6-1.6-0.6c-0.6,0-1.2,0.2-1.7,0.5c-0.6,0.3-1,0.7-1.4,1.2c-0.3,0.6-0.6,1.1-0.6,1.6c-0.1,0.5-0.1,1.1-0.1,1.9v3.1
		c0,0.9,0,1.5,0.1,1.9c0.1,0.4,0.3,0.7,0.6,0.9s0.8,0.3,1.5,0.3V49H39v-1.7c0.8,0,1.4-0.1,1.8-0.3c0.4-0.2,0.6-0.4,0.7-0.8
		c0.1-0.3,0.1-0.9,0.1-1.7V29.3c0-0.9-0.1-1.5-0.4-1.8c-0.3-0.3-1-0.5-2.2-0.5v-1.6l7.4-1.6v12.3c0.7-0.8,1.5-1.4,2.2-1.9
		c0.8-0.5,1.8-0.8,3.2-0.8c0.6,0,1.3,0.1,1.9,0.3c0.6,0.2,1.2,0.4,1.7,0.8c0.5,0.4,0.9,0.8,1.1,1.2c0.5,0.9,0.7,2,0.7,3.5v5.5
		c0,1,0.1,1.7,0.4,2.1c0.3,0.4,1,0.6,2.1,0.6V49z"/>
	<path d="M78.1,41H66.9c0,0.2,0,0.7,0.1,1.5c0.1,0.8,0.2,1.5,0.5,2.3c0.3,0.8,0.8,1.5,1.5,2c0.7,0.5,1.6,0.8,2.8,0.8
		c0.6,0,1.4-0.2,2.3-0.5c0.9-0.3,1.7-1,2.4-1.9l1.4,1c-1.4,2.3-3.7,3.4-6.8,3.4c-1.4,0-2.7-0.2-3.8-0.6c-1.1-0.4-2.1-1-2.9-1.7
		s-1.4-1.6-1.8-2.5c-0.4-1-0.6-2-0.6-3.1c0-1.5,0.4-2.8,1.1-4.1s1.7-2.3,3.1-3c1.3-0.7,2.8-1.1,4.5-1.1c1.7,0,3.1,0.4,4.2,1.1
		s2,1.6,2.5,2.8S78.1,39.7,78.1,41z M73.6,39.3c0-2.8-1.1-4.2-3.3-4.2c-1.1,0-1.9,0.4-2.4,1.1c-0.6,0.8-0.9,1.8-0.9,3H73.6z"/>
</g>
<g class="st0">
	<path d="M29.8,84.1l-2.1,9.1c-0.8,3.3-1.6,6-2.6,8.2c-0.9,2.2-2,4-3.2,5.3s-2.5,2.3-3.9,2.9c-1.4,0.6-3,0.9-4.8,0.9
		c-2.4,0-4.2-0.5-5.3-1.6s-1.8-2.2-1.8-3.3c0-0.7,0.2-1.3,0.5-1.7c0.4-0.4,0.8-0.6,1.3-0.6s0.9,0.2,1.3,0.6c0.4,0.4,0.5,0.9,0.5,1.6
		c0,0.2,0,0.4,0,0.8c0,0.3-0.1,0.6-0.1,0.7c0,0.7,0.3,1.3,1,1.8c0.7,0.5,1.5,0.8,2.6,0.8c1.4,0,2.6-0.5,3.8-1.5
		c1.2-1,2.2-2.6,3.1-4.9c0.9-2.2,1.9-5.4,3.1-9.4c0.9-3,1.9-6.2,3.2-9.6h-5.7l0.3-1h5.7c2.1-5.6,4-9.5,5.6-11.6
		c-2.1,0.8-4.4,1.2-7.1,1.2c-1,0-2.2-0.1-3.6-0.2c-0.8-0.1-1.4-0.2-1.7-0.2c-2,0-3.3,0.8-4,2.3h-1c0.4-1.6,1.1-3,2.3-4.3
		c1.2-1.3,2.6-2,4.3-2c1.2,0,2.5,0.5,4.2,1.5c1.5,0.9,2.8,1.4,3.7,1.4c1.4,0,2.7-0.6,3.9-1.8c0.7-0.7,1.3-1.1,1.7-1.1
		c0.5,0,0.8,0.3,0.8,0.8c0,0.5-0.5,1.2-1.5,2.1c-0.7,0.6-1.2,1.2-1.5,1.7c-0.3,0.5-0.7,1.6-1.2,3.3c-0.5,1.7-1,4-1.7,6.9h3.9l-0.3,1
		H29.8z"/>
</g>
<g class="st0">
	<path d="M46.7,84.3h2.2l-3.2,10.7c-0.5,1.5-0.7,2.5-0.7,2.8c0,0.2,0.1,0.4,0.2,0.6s0.3,0.2,0.5,0.2c0.8,0,1.8-1,2.9-2.9h0.8
		c-0.5,1.1-1.2,2.1-2,3c-0.9,0.9-1.7,1.3-2.4,1.3c-0.6,0-1-0.2-1.3-0.6c-0.3-0.4-0.5-0.9-0.5-1.6c0-0.5,0.1-1.1,0.4-2
		c-0.5,0.9-1.3,1.9-2.4,2.8c-1,0.9-2,1.4-2.9,1.4c-0.9,0-1.6-0.4-2.2-1.1c-0.6-0.7-0.9-1.7-0.9-2.9c0-1.7,0.5-3.4,1.4-5.3
		c0.9-1.9,2.2-3.5,3.7-4.7c1.5-1.3,2.8-1.9,3.9-1.9c0.6,0,1.1,0.2,1.5,0.5c0.4,0.3,0.6,0.8,0.7,1.4L46.7,84.3z M37.1,96.5
		c0,0.8,0.1,1.4,0.4,1.8c0.2,0.4,0.6,0.6,1.1,0.6c0.8,0,1.8-0.6,2.9-1.8c1.1-1.2,2.1-3,2.9-5.4c0.8-2.4,1.2-4.1,1.2-5
		c0-0.5-0.1-0.9-0.4-1.3c-0.3-0.4-0.6-0.5-1.1-0.5c-1.5,0-3,1.5-4.6,4.4C37.9,92.2,37.1,94.6,37.1,96.5z"/>
</g>
<g class="st0">
	<path d="M62.6,86.1c2.8,0.2,4.9,0.9,6.3,2.1c1.4,1.2,2,2.7,2,4.5c0,1.6-0.5,2.9-1.4,4c-0.9,1.1-2.1,1.9-3.5,2.2s-3.4,0.5-5.8,0.5
		h-9.7v-0.8h0.9c1.1,0,1.8-0.1,2.2-0.4c0.4-0.3,0.7-0.7,0.8-1.2c0.1-0.6,0.2-1.9,0.2-3.9V81c0-2-0.1-3.3-0.2-3.9
		c-0.1-0.6-0.4-1-0.7-1.2c-0.4-0.2-1.2-0.3-2.4-0.3h-0.5v-0.8l4.1-0.1l4.6-0.1c6.8,0,10.1,1.9,10.1,5.8c0,1.6-0.6,2.9-1.7,3.9
		C66.7,85.1,64.9,85.8,62.6,86.1z M58.1,85.8c0.3,0,0.6,0,0.8,0c2.6,0,4.4-0.4,5.4-1.2c1-0.8,1.4-2.2,1.4-4c0-1.3-0.2-2.3-0.6-3
		c-0.4-0.7-0.9-1.2-1.7-1.6c-0.8-0.4-2-0.6-3.9-0.6c-0.5,0-1,0-1.5,0.1V85.8z M58.1,86.7v5.5c0,2.3,0,3.8,0.1,4.5
		c0.1,0.6,0.3,1.1,0.7,1.4c0.4,0.3,1.1,0.5,2.2,0.5c1.9,0,3.4-0.5,4.4-1.5c1-1,1.5-2.5,1.5-4.5c0-2-0.6-3.5-1.7-4.5
		c-1.1-1-3-1.5-5.8-1.5C59.1,86.6,58.6,86.6,58.1,86.7z"/>
	<path d="M89,96.7h0.7c-0.1,2.1-1.1,3.1-3.1,3.1c-0.8,0-1.5-0.2-2-0.7c-0.5-0.4-0.8-1.1-0.9-2c-1.2,0.9-2.3,1.5-3.3,2
		c-1,0.4-1.9,0.7-2.7,0.7c-1,0-1.9-0.3-2.6-0.9c-0.7-0.6-1.1-1.4-1.1-2.3c0-1.3,0.6-2.3,1.8-3.3c1.2-0.9,2.9-1.8,5.1-2.7l2.8-1.1
		v-0.7c0-1-0.1-1.8-0.2-2.2c-0.1-0.5-0.5-0.9-1-1.2c-0.6-0.4-1.3-0.5-2.2-0.5c-1.8,0-2.8,0.6-3,1.8c-0.2,1.2-0.7,1.9-1.5,1.9
		c-0.7,0-1.1-0.4-1.1-1.1c0-0.7,0.5-1.4,1.5-2.2c1-0.8,2.5-1.2,4.6-1.2c1.5,0,2.7,0.2,3.6,0.7c0.9,0.5,1.4,1,1.7,1.7
		c0.3,0.6,0.4,1.6,0.4,2.8v6c0,1.4,0.1,2.3,0.2,2.7s0.5,0.6,0.9,0.6C88.3,98.5,88.8,97.9,89,96.7z M83.7,90.3l-2,0.8
		C78.6,92.4,77,94,77,95.9c0,0.8,0.2,1.4,0.6,1.9c0.4,0.5,0.9,0.7,1.6,0.7c0.6,0,1.2-0.2,2-0.6c0.8-0.4,1.6-0.9,2.5-1.7V90.3z"/>
	<path d="M104.3,95.8h0.8c-0.8,2.8-2.9,4.3-6.2,4.3c-2.1,0-3.9-0.7-5.4-2.2c-1.5-1.4-2.2-3.4-2.2-5.7c0-2.4,0.8-4.4,2.4-5.9
		c1.6-1.5,3.4-2.3,5.6-2.3c1.3,0,2.5,0.3,3.6,0.8c1.1,0.6,1.6,1.3,1.6,2.1c0,0.3-0.1,0.6-0.3,0.9c-0.2,0.3-0.5,0.4-0.9,0.4
		c-0.8,0-1.3-0.5-1.5-1.4c-0.1-0.7-0.4-1.2-0.7-1.5c-0.3-0.3-0.9-0.4-1.8-0.4c-1.6,0-2.9,0.6-3.7,1.7s-1.2,2.8-1.2,5.1
		c0,2.3,0.4,4.2,1.3,5.5c0.9,1.3,2.2,2,4,2C102.2,99.1,103.7,98,104.3,95.8z"/>
	<path d="M115.9,84.5h6v0.8c-1.1,0-2.6,0.9-4.5,2.5c-0.6,0.5-1.5,1.3-2.8,2.2l5.3,6.2c0.8,0.9,1.4,1.5,1.9,1.8
		c0.5,0.3,0.9,0.4,1.4,0.5v0.8h-7.4v-0.8c1.2,0,1.9-0.3,1.9-0.8c0-0.2-0.4-0.8-1.2-1.8l-3.8-4.5l-0.8,0.6v2.2c0,1.6,0,2.6,0.1,3
		c0,0.4,0.2,0.7,0.5,0.9c0.3,0.2,0.8,0.3,1.6,0.3v0.8h-7.6v-0.8h0.6c0.9,0,1.4-0.1,1.7-0.4c0.3-0.2,0.4-0.5,0.4-0.9
		c0-0.3,0.1-1.4,0.1-3v-15c0-1.4-0.1-2.4-0.4-2.8s-0.9-0.6-2-0.6v-0.8c0.7,0,1.6-0.1,2.6-0.3c1-0.2,1.7-0.3,2.1-0.5h0.4v16.8
		l1.6-1.1c2.5-1.8,3.8-3.1,3.8-3.9c0-0.5-0.5-0.8-1.4-0.8V84.5z"/>
</g>
</svg>
